<svg id="Layer_2" data-name="Layer 2" xmlns="http://www.w3.org/2000/svg" width="137.96" height="38.322" viewBox="0 0 137.96 38.322">
  <g id="Renew">
    <path id="Path_63" data-name="Path 63" d="M161,0h3.526V28.665H161Z" transform="translate(-136.32)" fill="#fff"/>
    <path id="Path_64" data-name="Path 64" d="M223.072,47h3.622L213.971,78.118h-3.622l4.168-10.232L206,47h3.892l6.628,17.11Z" transform="translate(-174.422 -39.795)" fill="#fff"/>
    <path id="Path_65" data-name="Path 65" d="M357.759,22.818H355V19.905h2.759V15h3.526v4.905H366.8v2.912h-5.518V35.694c0,2.077.635,2.759,2.788,2.759h2.73v2.912H363.5c-3.731,0-5.738-1.594-5.738-5.825Z" transform="translate(-300.582 -12.701)" fill="#fff"/>
    <path id="Path_66" data-name="Path 66" d="M517.375,41.825a.555.555,0,0,1-.555-.553V36.555a.555.555,0,1,1,1.11,0V41.27A.555.555,0,0,1,517.375,41.825Z" transform="translate(-437.597 -30.482)" fill="#e26927"/>
    <path id="Path_67" data-name="Path 67" d="M517.495,160.825a.555.555,0,0,1-.555-.555v-4.715a.555.555,0,1,1,1.11,0v4.715A.555.555,0,0,1,517.495,160.825Z" transform="translate(-437.699 -131.24)" fill="#e26927"/>
    <path id="Path_68" data-name="Path 68" d="M499.167,44.225a.553.553,0,0,1-.535-.411l-1.226-4.554a.555.555,0,1,1,1.073-.287l1.226,4.554a.555.555,0,0,1-.385.679A.581.581,0,0,1,499.167,44.225Z" transform="translate(-421.142 -32.65)" fill="#e26927"/>
    <path id="Path_69" data-name="Path 69" d="M530.107,159.145a.553.553,0,0,1-.535-.411l-1.226-4.554a.555.555,0,1,1,1.073-.287l1.226,4.554a.554.554,0,0,1-.391.679.525.525,0,0,1-.147.018Z" transform="translate(-447.34 -129.954)" fill="#e26927"/>
    <path id="Path_70" data-name="Path 70" d="M482.377,51.383a.553.553,0,0,1-.48-.278l-2.358-4.084a.555.555,0,0,1,.96-.555l2.358,4.084a.555.555,0,0,1-.48.832Z" transform="translate(-405.979 -39.129)" fill="#e26927"/>
    <path id="Path_71" data-name="Path 71" d="M541.908,154.253a.555.555,0,0,1-.481-.277l-2.358-4.084a.555.555,0,0,1,.961-.555l2.358,4.084a.556.556,0,0,1-.2.757A.55.55,0,0,1,541.908,154.253Z" transform="translate(-456.372 -126.21)" fill="#e26927"/>
    <path id="Path_72" data-name="Path 72" d="M467.932,62.537a.558.558,0,0,1-.392-.162l-3.326-3.34a.555.555,0,0,1,.777-.789l3.333,3.334a.555.555,0,0,1-.391.958Z" transform="translate(-392.933 -49.201)" fill="#e26927"/>
    <path id="Path_73" data-name="Path 73" d="M552.1,146.544a.56.56,0,0,1-.392-.163l-3.333-3.334a.555.555,0,0,1,.783-.785L552.5,145.6a.555.555,0,0,1-.392.947Z" transform="translate(-464.194 -120.332)" fill="#e26927"/>
    <path id="Path_74" data-name="Path 74" d="M456.412,76.836a.55.55,0,0,1-.276-.075L452.053,74.4a.555.555,0,1,1,.555-.957l4.084,2.358a.555.555,0,0,1-.279,1.035Z" transform="translate(-382.489 -62.103)" fill="#e26927"/>
    <path id="Path_75" data-name="Path 75" d="M559.888,136.432a.552.552,0,0,1-.277-.075L555.527,134a.555.555,0,0,1,.555-.96l4.084,2.358a.555.555,0,0,1-.278,1.035Z" transform="translate(-470.156 -112.594)" fill="#e26927"/>
    <path id="Path_76" data-name="Path 76" d="M449.642,93.843a.517.517,0,0,1-.144-.018L444.943,92.6a.555.555,0,0,1,.287-1.073l4.554,1.226a.555.555,0,0,1-.143,1.09Z" transform="translate(-376.39 -77.479)" fill="#e26927"/>
    <path id="Path_77" data-name="Path 77" d="M564.622,124.533a.59.59,0,0,1-.144-.018l-4.554-1.226a.555.555,0,0,1,.287-1.073l4.554,1.226a.555.555,0,0,1-.143,1.09Z" transform="translate(-473.744 -103.465)" fill="#e26927"/>
    <path id="Path_78" data-name="Path 78" d="M447.27,112.05h-4.715a.555.555,0,0,1,0-1.11h4.715a.555.555,0,0,1,0,1.11Z" transform="translate(-374.246 -93.934)" fill="#e26927"/>
    <path id="Path_79" data-name="Path 79" d="M566.27,111.93h-4.715a.555.555,0,0,1,0-1.11h4.715a.555.555,0,1,1,0,1.11Z" transform="translate(-475.005 -93.832)" fill="#e26927"/>
    <path id="Path_80" data-name="Path 80" d="M445.11,124.653a.555.555,0,0,1-.143-1.091l4.554-1.226a.555.555,0,0,1,.287,1.073l-4.554,1.226A.518.518,0,0,1,445.11,124.653Z" transform="translate(-376.409 -103.567)" fill="#e26927"/>
    <path id="Path_81" data-name="Path 81" d="M560.061,93.742a.555.555,0,0,1-.143-1.09l4.554-1.226a.555.555,0,1,1,.287,1.073L560.2,93.725A.581.581,0,0,1,560.061,93.742Z" transform="translate(-473.744 -77.395)" fill="#e26927"/>
    <path id="Path_82" data-name="Path 82" d="M452.622,136.461a.555.555,0,0,1-.277-1.035l4.084-2.358a.555.555,0,1,1,.555.961l-4.084,2.356A.552.552,0,0,1,452.622,136.461Z" transform="translate(-382.771 -112.608)" fill="#e26927"/>
    <path id="Path_83" data-name="Path 83" d="M555.632,76.93a.555.555,0,0,1-.277-1.035l4.082-2.356a.555.555,0,0,1,.555.96l-4.084,2.358A.544.544,0,0,1,555.632,76.93Z" transform="translate(-469.991 -62.215)" fill="#e26927"/>
    <path id="Path_84" data-name="Path 84" d="M464.524,146.574a.555.555,0,0,1-.392-.947l3.336-3.332a.554.554,0,1,1,.783.783l-3.334,3.334a.552.552,0,0,1-.392.162Z" transform="translate(-392.848 -120.344)" fill="#e26927"/>
    <path id="Path_85" data-name="Path 85" d="M548.606,62.224a.556.556,0,0,1-.392-.947l3.334-3.326a.555.555,0,1,1,.789.777L549,62.06a.553.553,0,0,1-.392.164Z" transform="translate(-464.043 -48.906)" fill="#e26927"/>
    <path id="Path_86" data-name="Path 86" d="M480.049,154.443a.555.555,0,0,1-.48-.832l2.358-4.084a.555.555,0,0,1,.96.555l-2.358,4.084A.553.553,0,0,1,480.049,154.443Z" transform="translate(-405.994 -126.391)" fill="#e26927"/>
    <path id="Path_87" data-name="Path 87" d="M539.449,51.418a.555.555,0,0,1-.48-.832l2.358-4.084a.555.555,0,0,1,.957.555L539.93,51.14A.558.558,0,0,1,539.449,51.418Z" transform="translate(-456.288 -39.173)" fill="#e26927"/>
    <path id="Path_88" data-name="Path 88" d="M498.112,159.175a.581.581,0,0,1-.144-.018.555.555,0,0,1-.392-.679l1.226-4.554a.555.555,0,1,1,1.073.287l-1.226,4.554A.553.553,0,0,1,498.112,159.175Z" transform="translate(-421.287 -129.98)" fill="#e26927"/>
    <path id="Path_89" data-name="Path 89" d="M528.8,44.2a.58.58,0,0,1-.144-.018.555.555,0,0,1-.392-.679l1.226-4.554a.555.555,0,0,1,1.073.287l-1.226,4.554A.553.553,0,0,1,528.8,44.2Z" transform="translate(-447.272 -32.625)" fill="#e26927"/>
    <path id="Path_90" data-name="Path 90" d="M10.345,70.34C4.39,70.34,0,66.169,0,59.572,0,53.013,4.237,48.88,10.345,48.88c6.072,0,10.042,4.246,10.042,9.933a18.517,18.517,0,0,1-.115,2.086H3.55a6.558,6.558,0,0,0,6.8,6.521c3.132,0,5.117-1.593,5.88-3.832h3.742C18.9,67.382,15.539,70.34,10.345,70.34ZM3.588,58.1H16.8c.038-4.056-3.017-6.294-6.605-6.294C6.8,51.8,3.97,54.037,3.588,58.1Z" transform="translate(0 -41.387)" fill="#fff"/>
    <path id="Path_91" data-name="Path 91" d="M777.345,70.34C771.39,70.34,767,66.169,767,59.572c0-6.559,4.237-10.692,10.345-10.692,6.072,0,10.042,4.246,10.042,9.933a18.5,18.5,0,0,1-.115,2.086H770.55a6.558,6.558,0,0,0,6.8,6.521c3.132,0,5.117-1.593,5.88-3.832h3.742C785.9,67.382,782.539,70.34,777.345,70.34ZM770.589,58.1H783.8c.038-4.056-3.017-6.294-6.605-6.294C773.8,51.8,770.97,54.037,770.589,58.1Z" transform="translate(-649.427 -41.387)" fill="#fff"/>
    <path id="Path_92" data-name="Path 92" d="M636.461,56.3c0-4.318-2.351-6.25-5.9-6.25-3.585,0-6.053,1.971-6.053,6.519v11.9H621V47h3.509v3.127c1.387-2.2,3.932-3.127,6.786-3.127,4.9,0,8.713,2.742,8.713,8.794V68.46h-3.547Z" transform="translate(-525.807 -39.795)" fill="#fff"/>
  </g>
</svg>
